<svg width="400" height="274" viewBox="0 0 400 274" fill="none" xmlns="http://www.w3.org/2000/svg">
<path d="M245.1 224.127L261.367 188.447L277.6 0L187.5 87.6148L164.567 11.1479L117.367 132.707L117.267 132.974L116.6 160.11L109.3 159.743L94.4667 64.885L68.6333 43.991L0 68.2561L62.1 67.5886L56.2667 162.947L119.6 241.149L185.833 226.864L221 272.924L400 273.058L245.1 224.127ZM120.4 133.575L164.2 20.7272L184.967 90.0514L135.333 138.214L131.6 160.844L120.3 160.243L120.4 133.575ZM117.867 163.314L131.1 164.015L120.3 229.467L109.867 162.88L117.867 163.314ZM18.7667 64.9518L68.0333 47.529L88.6667 64.2175L65.4333 64.4511L18.7667 64.9518ZM65.2333 67.5886L91.7 67.3216L106.433 161.545L117.733 233.973L59.4667 161.946L65.2333 67.5886ZM185.333 223.827L122.167 237.445L134.5 162.78L138.3 139.817L271.433 10.3469L185.333 223.827ZM188.3 224.962L273.233 14.3855L258.333 187.646L241.533 224.427L221.433 268.352L188.3 224.962ZM243.8 226.998L379.667 269.92L224.233 269.854L243.8 226.998Z" fill="#FF715B"/>
</svg>
